<svg xmlns="http://www.w3.org/2000/svg" viewBox="0 71 512 369"><g transform="translate(0,512) scale(0.1,-0.1)" fill="#7FB069" stroke="none"><path d="M2563 3475 c-89 -19 -222 -76 -327 -139 -147 -88 -286 -208 -531
-455 -126 -128 -259 -255 -295 -282 -159 -121 -280 -101 -496 84 -60 52 -130
106 -156 121 -124 73 -339 24 -467 -107 -88 -90 -154 -261 -135 -355 14 -67
109 -121 251 -142 38 -5 143 -10 235 -10 169 0 219 -6 339 -41 79 -23 113 -54
107 -98 -3 -17 -2 -31 2 -31 3 0 32 -15 63 -34 53 -32 59 -34 83 -21 48 25
111 -18 183 -125 83 -123 85 -131 91 -450 5 -278 6 -286 28 -318 30 -41 73
-64 127 -64 51 -1 93 22 125 70 24 34 25 44 30 235 5 182 7 200 24 213 11 8
30 14 42 14 13 0 238 1 501 3 419 2 477 4 474 17 -2 8 -13 47 -23 85 -11 39
-22 119 -25 178 -6 103 -5 109 17 132 30 32 79 33 107 3 16 -18 22 -42 27
-112 16 -228 78 -339 228 -411 38 -18 68 -40 75 -55 8 -16 13 -70 13 -145 0
-102 3 -125 20 -153 42 -69 139 -94 208 -52 60 37 72 70 72 200 0 132 -10 108
132 305 62 86 103 133 121 139 22 8 44 1 134 -41 163 -76 278 -116 415 -143
57 -11 98 -43 98 -76 0 -11 18 -14 73 -14 70 0 72 1 73 26 3 37 27 58 91 78
32 10 78 30 103 44 53 30 140 109 140 127 0 9 -36 14 -127 18 -148 6 -217 22
-328 77 -93 46 -175 113 -254 208 -80 95 -128 176 -228 379 -155 316 -253 476
-410 670 -99 123 -290 292 -313 278 -6 -4 -9 -1 -8 7 5 22 -215 126 -326 153
-114 29 -296 33 -403 10z m-1925 -782 c54 -34 84 -132 63 -204 -16 -55 -65
-107 -106 -115 -115 -21 -194 134 -135 264 32 71 113 96 178 55z"/></g>
<g transform="translate(0,512) scale(0.1,-0.1)" fill="#C9D94E" stroke="none"><path d="M2694 4048 c-77 -104 -109 -181 -109 -263 0 -78 11 -145 25 -145 5 0
10 9 12 20 3 22 24 24 22 3 -1 -10 23 -13 91 -13 51 0 113 -3 138 -6 l45 -6 8
58 c15 109 9 150 -35 238 -42 86 -112 176 -137 176 -8 0 -35 -28 -60 -62z
m196 -300 c0 -9 3 -9 10 2 8 11 9 7 3 -15 -4 -16 -7 -41 -6 -53 1 -22 -2 -23
-35 -18 -21 4 -68 9 -105 12 -60 6 -69 9 -77 30 -18 45 -7 51 105 53 81 2 105
-1 105 -11z M2727 3724 c-18 -19 0 -24 79 -24 64 0 85 3 82 13 -5 13 -148 23
-161 11z M1782 3783 c-4 -10 -7 -74 -7 -143 0 -109 3 -131 23 -174 22 -48 106
-156 121 -156 4 0 34 21 66 46 33 25 88 64 122 86 35 23 63 46 63 52 0 32 -62
136 -104 175 -48 43 -182 113 -244 126 -26 5 -33 3 -40 -12z m350 -243 c0 -5
1 -16 2 -22 1 -7 5 -16 11 -20 6 -5 6 -11 -2 -19 -13 -13 -36 -2 -27 13 5 7 2
9 -8 5 -11 -4 -17 2 -21 18 -2 14 0 22 4 19 5 -3 9 0 9 5 0 14 29 14 32 1z
m-112 -74 c0 -8 -10 -22 -22 -30 -12 -9 -19 -18 -15 -22 3 -3 14 1 23 10 9 10
22 15 29 13 6 -3 17 4 24 14 6 11 16 17 21 14 6 -3 10 -1 10 6 0 7 3 10 6 7 8
-8 -19 -48 -32 -48 -6 0 -19 -9 -29 -20 -10 -11 -22 -20 -27 -20 -18 0 -78
-47 -70 -55 4 -4 -3 -3 -14 3 -12 6 -24 9 -26 6 -3 -2 -4 6 -3 18 1 13 3 30 4
38 1 12 4 12 15 -2 7 -10 21 -18 30 -18 21 0 20 10 -1 25 -15 11 -13 15 18 43
37 34 59 40 59 18z M3605 3777 c-82 -31 -164 -79 -201 -119 -33 -35 -84 -127 -84 -151 0
-8 26 -31 58 -52 31 -21 88 -63 125 -93 l68 -55 24 29 c13 16 21 33 18 38 -4
5 -1 6 5 2 6 -4 24 13 42 39 29 42 41 49 95 57 16 3 21 14 28 61 8 59 0 87
-27 87 -18 0 -46 54 -46 88 0 39 -19 92 -33 91 -7 0 -39 -10 -72 -22z m-137
-238 c19 -17 32 -31 30 -32 -18 -11 -67 -23 -62 -16 7 12 -27 11 -46 -1 -13
-8 -12 -10 3 -10 17 0 25 -3 85 -34 35 -19 41 -16 17 8 -14 14 -14 17 2 36 24
27 35 25 23 -5 -6 -16 -6 -25 0 -25 6 0 15 -11 20 -25 5 -14 21 -30 35 -37 26
-12 33 -32 14 -43 -6 -4 -16 1 -24 11 -18 26 -33 9 -16 -19 9 -14 1 -10 -22
12 -20 19 -34 38 -31 43 3 4 10 6 15 2 5 -3 7 -10 4 -15 -4 -5 -1 -9 4 -9 16
0 13 16 -4 30 -12 10 -18 10 -32 -1 -15 -12 -16 -12 -10 4 6 15 3 17 -13 12
-13 -4 -27 1 -43 17 -13 13 -35 31 -51 41 -37 25 -33 63 7 59 19 -3 27 1 27
12 0 25 32 18 68 -15z M1223 3245 c-10 -28 4 -156 25 -223 25 -78 60 -130 120 -177 l47 -37
113 118 112 117 -17 26 c-30 46 -82 96 -120 115 -21 10 -45 22 -53 26 -17 8
-127 35 -183 45 -29 5 -39 2 -44 -10z m361 -180 c-17 -26 -14 -42 5 -30 6 3 9
11 6 16 -4 5 -1 9 4 9 6 0 11 -7 11 -15 0 -8 -4 -15 -10 -15 -5 0 -9 -4 -7 -9
1 -5 -1 -8 -4 -7 -13 2 -48 -37 -42 -47 3 -5 1 -7 -4 -4 -6 4 -13 -3 -16 -14
-3 -12 -10 -18 -16 -14 -6 3 -14 -1 -17 -10 -6 -14 -8 -14 -23 -1 -15 14 -17
13 -17 -4 0 -10 3 -18 6 -17 3 1 6 -2 7 -8 2 -12 -27 -7 -44 7 -19 15 -16 32
8 54 21 19 21 18 40 -5 17 -21 24 -20 20 3 -1 5 5 3 14 -4 13 -11 14 -10 9 4
-4 10 -16 21 -26 25 -18 6 -18 8 -4 20 13 11 16 11 16 -2 0 -26 27 -27 51 -1
19 20 20 26 9 37 -8 7 -10 8 -7 1 11 -20 -16 -34 -36 -20 -16 12 -14 16 20 45
46 39 71 42 47 6z M4102 3145 c-92 -20 -143 -48 -201 -110 l-52 -55 49 -72 c26 -40 65
-101 86 -135 l37 -63 40 23 c90 51 134 92 166 157 35 69 62 161 66 226 l2 39
-65 2 c-36 1 -94 -4 -128 -12z m-133 -111 c1 -10 10 -26 18 -36 8 -9 16 -22
17 -30 1 -7 7 -23 14 -35 7 -12 12 -28 12 -36 0 -8 11 -22 25 -31 37 -24 33
-49 -5 -41 -42 9 -40 -17 2 -33 27 -10 34 -9 41 3 9 17 27 20 27 4 0 -13 -20
-33 -40 -41 -16 -6 -43 16 -32 26 3 4 -1 4 -10 1 -9 -4 -14 -13 -11 -21 3 -9
0 -12 -9 -9 -16 6 -22 85 -7 85 5 0 9 7 9 15 0 17 -25 20 -35 5 -4 -6 -11 -8
-16 -5 -5 3 -6 -2 -2 -11 6 -16 7 -15 20 2 16 22 17 11 2 -18 -11 -20 -12 -19
-35 18 -13 22 -27 47 -30 57 -4 9 -10 17 -15 17 -5 0 -6 7 -3 15 5 11 2 13
-12 8 -11 -4 -15 -3 -10 5 3 6 2 13 -4 17 -5 3 -10 11 -10 17 0 6 10 4 23 -5
21 -14 23 -14 22 2 0 9 -5 22 -9 30 -5 7 -4 17 2 23 8 8 14 3 23 -18 6 -16 16
-39 22 -51 8 -17 7 -30 -3 -48 -7 -14 -10 -28 -6 -32 10 -11 37 -13 31 -2 -4
5 -2 16 3 25 12 21 -3 80 -29 113 -19 24 -17 45 4 38 7 -2 14 -12 16 -23z M4470 2439 c-52 -10 -150 -56 -150 -70 0 -5 7 -12 15 -15 8 -4 12
-11 8 -17 -4 -6 0 -8 11 -4 21 8 11 -12 -16 -31 -10 -7 -18 -20 -18 -29 0 -9
-6 -13 -15 -9 -13 4 -13 2 -5 -14 6 -12 6 -21 1 -25 -6 -3 -15 13 -22 35 -12
40 -22 49 -34 30 -7 -12 62 -134 99 -173 14 -15 26 -31 26 -36 0 -4 5 -12 11
-18 9 -9 22 -7 53 9 80 41 125 78 154 130 38 67 74 178 70 215 -3 28 -4 28
-73 30 -38 0 -90 -3 -115 -8z m-82 -197 c2 -12 7 -20 11 -17 5 2 13 -6 19 -19
9 -20 7 -27 -14 -47 -13 -12 -24 -28 -24 -36 0 -18 -22 -12 -39 10 -11 16 -10
23 13 55 14 20 24 37 22 39 -9 9 -56 -18 -56 -32 0 -9 -4 -13 -10 -10 -17 10
-11 29 16 58 30 32 58 32 62 -1z m82 -89 c0 -3 -7 -2 -16 1 -8 3 -12 2 -9 -4
3 -6 14 -10 23 -11 11 0 12 -3 5 -6 -7 -2 -13 -11 -13 -18 0 -18 -48 -48 -67
-41 -12 5 -11 10 9 31 12 13 23 28 23 32 0 18 16 32 30 26 8 -3 15 -7 15 -10z"/></g>
<g transform="translate(0,512) scale(0.1,-0.1)" fill="#2E241C" stroke="none"><path d="M2677 4244 c-59 -32 -178 -200 -220 -310 -21 -57 -25 -143 -14 -302
2 -32 0 -34 -53 -54 -30 -11 -61 -20 -68 -21 -7 -1 -23 21 -34 48 -60 141
-170 239 -339 305 -140 54 -206 51 -266 -13 -42 -44 -53 -84 -60 -207 -10
-193 25 -308 131 -430 l57 -65 -28 -23 -28 -22 -30 37 c-56 71 -100 107 -180
144 -91 42 -208 71 -299 73 -52 1 -69 -3 -103 -26 -63 -42 -77 -82 -70 -207
10 -189 54 -300 159 -404 l68 -67 -35 -17 c-63 -30 -126 1 -285 141 -164 146
-290 186 -468 153 -290 -55 -500 -304 -505 -597 -2 -99 31 -173 101 -223 119
-87 204 -106 512 -116 214 -7 242 -10 315 -34 67 -22 83 -24 104 -14 60 29 57
102 -4 132 -86 40 -186 57 -335 56 -285 -1 -443 29 -512 99 -35 35 -38 42 -38
97 0 108 46 223 124 310 89 99 210 154 342 155 90 1 152 -26 247 -108 187
-162 262 -204 364 -204 102 0 144 31 463 345 344 339 450 424 650 525 218 110
457 128 695 53 140 -44 261 -114 390 -227 95 -82 94 -82 159 -155 148 -167
248 -326 419 -661 147 -288 209 -387 301 -482 151 -156 321 -227 550 -232 79
-1 111 -6 114 -15 12 -35 -138 -146 -244 -181 -91 -31 -120 -84 -73 -131 31
-31 100 -20 208 32 67 33 103 58 163 118 103 104 118 161 66 249 -34 56 -75
69 -233 75 -146 5 -195 16 -298 68 l-47 25 64 42 c112 74 172 164 217 327 39
142 27 213 -45 267 -29 21 -40 23 -166 22 -112 -1 -146 -5 -200 -23 -74 -26
-142 -66 -185 -111 -16 -16 -32 -30 -35 -30 -8 0 -75 139 -69 143 2 2 44 29
92 61 106 70 163 138 205 245 29 73 62 216 62 269 0 48 -39 111 -87 139 -43
25 -49 26 -156 20 -188 -10 -304 -53 -400 -150 l-57 -58 -28 32 c-54 64 -54
58 -3 119 69 80 91 115 91 144 0 50 -73 85 -111 54 -9 -7 -39 -43 -68 -80 -29
-38 -56 -68 -60 -68 -4 0 -32 21 -61 46 -30 26 -87 68 -127 95 -40 28 -73 55
-73 62 0 7 13 39 29 72 45 96 139 166 299 222 64 22 68 18 78 -75 4 -43 13
-71 25 -83 25 -25 74 -24 100 2 20 20 21 29 15 98 -8 97 -37 158 -92 188 -53
31 -107 29 -205 -7 -171 -62 -300 -170 -355 -294 -16 -36 -31 -66 -34 -66 -3
0 -27 9 -55 19 -37 14 -49 24 -48 38 26 204 21 255 -31 367 -40 87 -145 227
-190 255 -40 25 -127 28 -169 5z m146 -186 c26 -35 62 -92 80 -128 29 -59 32
-73 32 -155 0 -49 -3 -101 -7 -115 l-7 -25 -163 4 c-90 1 -164 4 -165 5 -2 1
-7 35 -13 76 -12 84 3 165 45 235 44 77 117 165 134 165 10 0 38 -27 64 -62z
m-897 -294 c112 -49 180 -111 224 -205 32 -70 33 -73 14 -86 -10 -7 -59 -43
-109 -78 -49 -36 -100 -73 -113 -82 -22 -16 -24 -15 -67 27 -58 57 -91 121
-106 204 -12 71 -6 196 12 243 11 30 25 28 145 -23z m-554 -523 c101 -26 165
-60 215 -114 74 -80 77 -69 -53 -206 -132 -138 -122 -136 -210 -46 -41 43 -55
67 -77 133 -15 46 -30 117 -33 166 l-7 86 45 0 c25 0 79 -9 120 -19z m2930
-83 c7 -19 -11 -118 -33 -188 -26 -79 -67 -146 -111 -180 -39 -31 -139 -92
-142 -88 -2 2 -27 44 -56 93 -29 50 -66 108 -82 129 -15 21 -28 46 -28 55 0
25 85 108 138 135 86 43 304 74 314 44z m368 -724 c0 -40 -29 -143 -57 -203
-32 -66 -84 -118 -162 -160 l-60 -31 -43 57 c-25 32 -61 86 -82 121 l-38 63
46 54 c73 85 168 121 329 124 66 1 67 1 67 -25z M518 2695 c-88 -49 -101 -204 -23 -282 38 -38 85 -44 135 -18 85 44
95 212 17 283 -31 29 -93 38 -129 17z M2855 1971 c-38 -16 -48 -52 -41 -148 8 -94 29 -196 51 -250 l14 -33
-503 0 c-481 0 -505 -1 -527 -19 -23 -19 -24 -24 -29 -219 -6 -222 -8 -231
-80 -279 -65 -45 -166 -19 -211 54 -23 37 -24 45 -29 324 l-5 285 -39 79 c-48
98 -147 205 -189 205 -15 0 -36 -9 -47 -20 -34 -34 -25 -70 31 -135 28 -33 63
-82 77 -110 l27 -50 5 -285 5 -285 28 -57 c34 -69 101 -131 164 -152 26 -9 77
-16 114 -16 89 0 177 43 230 113 52 70 60 104 66 275 l5 152 500 0 500 0 37
-29 c20 -15 55 -38 79 -50 l42 -21 0 -98 c0 -119 18 -177 78 -243 60 -67 128
-99 212 -99 97 0 155 23 221 89 72 72 89 121 89 253 l0 99 47 67 c26 37 60 83
75 104 l28 36 48 -23 c146 -69 335 -130 443 -142 49 -5 59 -3 78 16 27 27 28
76 1 98 -10 9 -63 27 -117 39 -114 25 -265 80 -375 135 -85 43 -126 48 -151
21 -9 -10 -62 -81 -117 -157 l-100 -139 0 -111 c0 -128 -17 -177 -71 -216 -26
-19 -47 -24 -91 -24 -69 0 -103 22 -135 85 -20 39 -23 60 -23 165 0 66 -4 126
-8 132 -4 7 -39 28 -77 46 -148 72 -209 181 -224 401 -7 98 -10 110 -32 127
-26 20 -43 22 -74 10z"/></g></svg>